<?xml version="1.0" encoding="UTF-8"?>
<!DOCTYPE svg PUBLIC "-//W3C//DTD SVG 1.1//EN" "http://www.w3.org/Graphics/SVG/1.1/DTD/svg11.dtd">
<!-- Creator: CorelDRAW -->
<svg xmlns="http://www.w3.org/2000/svg" xml:space="preserve" width="2048px" height="2048px" style="shape-rendering:geometricPrecision; text-rendering:geometricPrecision; image-rendering:optimizeQuality; fill-rule:evenodd; clip-rule:evenodd"
viewBox="0 0 2048 2048"
 xmlns:xlink="http://www.w3.org/1999/xlink">
 <defs>
  <style type="text/css">
   <![CDATA[
    .fil2 {fill:none}
    .fil11 {fill:#00B8D4}
    .fil19 {fill:#253035}
    .fil12 {fill:#37474F}
    .fil14 {fill:#494F56}
    .fil6 {fill:#546E7A}
    .fil13 {fill:#555A61}
    .fil5 {fill:#78909C}
    .fil21 {fill:#7B838E}
    .fil1 {fill:#80CBC4}
    .fil7 {fill:#80DEEA}
    .fil20 {fill:#989FAA}
    .fil0 {fill:#B2DFDB}
    .fil3 {fill:#263238;fill-rule:nonzero}
    .fil15 {fill:#2A3541;fill-rule:nonzero}
    .fil4 {fill:#37474F;fill-rule:nonzero}
    .fil18 {fill:#49692E;fill-rule:nonzero}
    .fil22 {fill:#526072;fill-rule:nonzero}
    .fil23 {fill:#616161;fill-rule:nonzero}
    .fil10 {fill:#7CB342;fill-rule:nonzero}
    .fil16 {fill:#873636;fill-rule:nonzero}
    .fil17 {fill:#8E652D;fill-rule:nonzero}
    .fil8 {fill:#EF5350;fill-rule:nonzero}
    .fil24 {fill:#FF8F00;fill-rule:nonzero}
    .fil9 {fill:#FFAB40;fill-rule:nonzero}
   ]]>
  </style>
   <clipPath id="id0">
    <path d="M1024 -0.0011811c565.539,0 1024,458.462 1024,1024 0,565.539 -458.462,1024 -1024,1024 -565.539,0 -1024,-458.462 -1024,-1024 0,-565.539 458.462,-1024 1024,-1024z"/>
   </clipPath>
 </defs>
 <g id="Layer_x0020_1">
  <metadata id="CorelCorpID_0Corel-Layer"/>
  <path class="fil0" d="M1024 -0.0011811c565.539,0 1024,458.462 1024,1024 0,565.539 -458.462,1024 -1024,1024 -565.539,0 -1024,-458.462 -1024,-1024 0,-565.539 458.462,-1024 1024,-1024z"/>
  <g style="clip-path:url(#id0)">
   <g id="_289348640">
    <g>
     <polygon id="_2909739601" class="fil1" points="1578.71,585.872 2714.59,1721.75 2715.93,1723.54 2717.09,1725.45 2718.06,1727.47 2718.84,1729.6 2719.41,1731.82 2719.76,1734.12 2719.88,1736.49 1584,600.608 1583.88,598.239 1583.53,595.939 1582.96,593.719 1582.18,591.591 1581.21,589.565 1580.04,587.656 "/>
     <polygon id="_290973600" class="fil1" points="1584,600.608 2719.88,1736.49 2719.88,2248.87 1584,1112.99 "/>
     <polygon id="_290974824" class="fil1" points="1584,1112.99 2719.88,2248.87 2719.88,2402.73 1584,1266.85 "/>
     <polygon id="_290974464" class="fil1" points="1584,1266.85 2719.88,2402.73 2719.76,2405.1 2719.41,2407.4 2718.84,2409.62 2718.06,2411.75 2717.09,2413.77 2715.93,2415.68 2714.59,2417.46 2713.1,2419.11 2711.45,2420.61 2709.67,2421.94 2707.76,2423.1 2705.73,2424.08 2703.6,2424.85 2701.39,2425.42 2699.08,2425.78 2696.72,2425.9 1560.84,1290.01 1563.2,1289.89 1565.5,1289.54 1567.72,1288.97 1569.85,1288.19 1571.88,1287.22 1573.79,1286.06 1575.57,1284.72 1577.22,1283.23 1578.71,1281.58 1580.04,1279.8 1581.21,1277.89 1582.18,1275.86 1582.96,1273.74 1583.53,1271.52 1583.88,1269.22 "/>
     <polygon id="_290974560" class="fil1" points="1560.84,1290.01 2696.72,2425.9 2219.42,2425.9 1083.54,1290.01 "/>
     <polygon id="_290974248" class="fil1" points="1083.54,1290.01 2219.42,2425.9 2219.42,2533.39 1083.54,1397.5 "/>
     <polygon id="_290974368" class="fil1" points="1251.11,1426.2 2387,2562.09 2388.54,2563.83 2389.65,2565.62 2390.33,2567.46 2390.56,2569.35 1254.68,1433.47 1254.45,1431.58 1253.77,1429.74 1252.66,1427.95 "/>
     <polygon id="_290974536" class="fil1" points="964.459,1290.01 2100.34,2425.9 1623.05,2425.9 487.165,1290.01 "/>
     <polygon id="_290974632" class="fil1" points="1254.68,1433.47 2390.56,2569.35 2389.23,2573.84 2385.38,2578.04 2379.15,2581.96 2370.74,2585.58 2360.29,2588.91 2347.98,2591.95 2333.99,2594.71 2318.47,2597.17 2301.61,2599.34 2283.56,2601.22 2264.49,2602.82 2244.58,2604.12 2224,2605.14 2202.91,2605.86 2181.48,2606.29 2159.88,2606.44 2138.28,2606.29 2116.86,2605.86 2095.76,2605.14 2075.18,2604.12 2055.27,2602.82 2036.21,2601.22 2018.16,2599.34 2001.29,2597.17 1985.78,2594.71 1971.78,2591.95 1959.48,2588.91 1949.03,2585.58 1940.61,2581.96 1934.39,2578.04 798.506,1442.16 804.729,1446.07 813.148,1449.7 823.595,1453.03 835.901,1456.07 849.896,1458.82 865.411,1461.29 882.278,1463.46 900.328,1465.34 919.391,1466.93 939.3,1468.24 959.884,1469.25 980.975,1469.98 1002.4,1470.41 1024,1470.56 1045.6,1470.41 1067.03,1469.98 1088.12,1469.25 1108.7,1468.24 1128.61,1466.93 1147.67,1465.34 1165.72,1463.46 1182.59,1461.29 1198.11,1458.82 1212.1,1456.07 1224.41,1453.03 1234.85,1449.7 1243.27,1446.07 1249.5,1442.16 1253.35,1437.96 "/>
     <polygon id="_290975664" class="fil1" points="487.165,1290.01 1623.05,2425.9 1620.68,2425.78 1618.38,2425.42 1616.16,2424.85 1614.03,2424.08 1612,2423.1 1610.09,2421.94 1608.31,2420.61 472.429,1284.72 474.213,1286.06 476.123,1287.22 478.148,1288.19 480.277,1288.97 482.497,1289.54 484.797,1289.89 "/>
    </g>
    <path id="_289348688" class="fil1" d="M487.165 577.441l1073.67 0c12.7937,0 23.1662,10.3724 23.1662,23.1662l0 512.384 0 153.856c0,12.7925 -10.3724,23.165 -23.1662,23.165l-477.293 0 0 107.49c92.4107,3.5504 171.136,15.5398 171.136,35.967 0,49.4504 -461.353,49.4504 -461.353,0 0,-20.4272 78.7253,-32.4166 171.135,-35.967l0 -107.49 -477.294 0c-12.7925,0 -23.1662,-10.3724 -23.1662,-23.165l0 -153.856 0 -512.384c0,-12.7937 10.3736,-23.1662 23.1662,-23.1662z"/>
   </g>
  </g>
  <path class="fil2" d="M1024 -0.0011811c565.539,0 1024,458.462 1024,1024 0,565.539 -458.462,1024 -1024,1024 -565.539,0 -1024,-458.462 -1024,-1024 0,-565.539 458.462,-1024 1024,-1024z"/>
  <path class="fil3" d="M793.325 1433.47c0,49.4504 461.353,49.4504 461.353,0 0,-49.4504 -461.353,-49.4504 -461.353,0z"/>
  <path class="fil4" d="M1083.54 1266.85c0,-12.7937 -26.6587,-23.1662 -59.5418,-23.1662 -32.8819,0 -59.5406,10.3724 -59.5406,23.1662l0 157.018c0,12.7937 26.6587,23.165 59.5406,23.165 32.8831,0 59.5418,-10.3713 59.5418,-23.165l0 -157.018z"/>
  <path class="fil5" d="M487.165 577.441l1073.67 0c12.7937,0 23.1662,10.3724 23.1662,23.1662l0 666.239c0,12.7937 -10.3724,23.1662 -23.1662,23.1662l-1073.67 0c-12.7937,0 -23.165,-10.3724 -23.165,-23.1662l0 -666.239c0,-12.7937 10.3713,-23.1662 23.165,-23.1662z"/>
  <path class="fil6" d="M1584 1112.99l0 153.854c0,12.7937 -10.3724,23.1662 -23.1662,23.1662l-1073.67 0c-12.7937,0 -23.165,-10.3724 -23.165,-23.1662l0 -153.854 1120 0z"/>
  <polygon class="fil7" points="1537.67,623.774 510.331,623.774 510.331,1095.63 1537.67,1095.63 "/>
  <polygon class="fil8" points="1508.3,1186.82 1508.3,1216.19 1537.67,1216.19 1537.67,1186.82 "/>
  <polygon class="fil9" points="1405.45,1216.19 1434.81,1216.19 1434.81,1186.82 1405.45,1186.82 "/>
  <polygon class="fil10" points="1456.8,1186.82 1456.8,1216.19 1486.17,1216.19 1486.17,1186.82 "/>
  <ellipse class="fil11" cx="1024" cy="1201.5" rx="28.32" ry="28.32"/>
  <circle class="fil12" cx="1024" cy="1201.5" r="24.0885"/>
  <path class="fil13" d="M1117.39 741.52l0 188.345c0,3.85985 -3.12874,6.98859 -6.98741,6.98859l-321.441 0c-3.85985,0 -6.98859,-3.12874 -6.98859,-6.98859l0 -188.345 335.417 0z"/>
  <polygon class="fil14" points="1117.39,741.52 1117.39,755.495 781.972,755.495 781.972,741.52 "/>
  <path class="fil15" d="M788.96 671.64l321.441 0c3.85866,0 6.98741,3.12874 6.98741,6.98859l0 62.8902 -335.417 0 0 -62.8902c0,-3.85985 3.12874,-6.98859 6.98859,-6.98859z"/>
  <polygon class="fil16" points="1061.52,692.247 1061.52,720.199 1089.47,720.199 1089.47,692.247 "/>
  <polygon class="fil17" points="963.622,720.199 991.573,720.199 991.573,692.247 963.622,692.247 "/>
  <polygon class="fil18" points="1012.5,692.247 1012.5,720.199 1040.45,720.199 1040.45,692.247 "/>
  <polygon class="fil19" points="994.862,877.774 994.862,867.692 1068.31,867.692 1068.31,877.774 "/>
  <polygon class="fil19" points="919.477,863.846 966.822,839.068 919.477,814.502 919.477,800.6 979.262,832.462 979.262,845.514 919.477,877.774 "/>
  <polygon class="fil19" points="890.839,877.774 831.054,845.514 831.054,832.462 890.839,800.6 890.839,814.502 843.432,839.068 890.839,863.846 "/>
  <path class="fil20" d="M1184.47 793.757l0 188.346c0,3.85866 -3.12992,6.98741 -6.98859,6.98741l-321.441 0c-3.85985,0 -6.98859,-3.12874 -6.98859,-6.98741l0 -188.346 335.418 0z"/>
  <polygon class="fil21" points="1184.47,793.757 1184.47,807.732 849.055,807.732 849.055,793.757 "/>
  <path class="fil22" d="M856.044 723.877l321.441 0c3.85866,0 6.98859,3.12992 6.98859,6.98859l0 62.8914 -335.418 0 0 -62.8914c0,-3.85866 3.12874,-6.98859 6.98859,-6.98859z"/>
  <polygon class="fil8" points="1128.6,744.485 1128.6,772.436 1156.55,772.436 1156.55,744.485 "/>
  <polygon class="fil9" points="1030.71,772.436 1058.66,772.436 1058.66,744.485 1030.71,744.485 "/>
  <polygon class="fil10" points="1079.58,744.485 1079.58,772.436 1107.53,772.436 1107.53,744.485 "/>
  <polygon class="fil12" points="1061.95,930.01 1061.95,919.929 1135.39,919.929 1135.39,930.01 "/>
  <polygon class="fil12" points="986.56,916.083 1033.9,891.304 986.56,866.738 986.56,852.837 1046.35,884.698 1046.35,897.751 986.56,930.01 "/>
  <polygon class="fil12" points="957.923,930.01 898.138,897.751 898.138,884.698 957.923,852.837 957.923,866.738 910.515,891.304 957.923,916.083 "/>
  <path class="fil23" d="M1233.12 968.485l0 -0.0484252 0 -38.7225c0,-11.4709 -5.89489,-21.6744 -15.391,-28.8709 -8.55709,-6.48544 -20.1969,-10.5118 -32.8453,-10.5118l-8.07757 0c-12.6484,0 -24.2882,4.02638 -32.8453,10.5118 -9.49725,7.19646 -15.3921,17.3988 -15.3921,28.8709l0 38.0138 0 0.757087 23.3339 0 0 -0.598819 0 -38.1721c0,-3.77244 2.33504,-7.42796 6.09449,-10.2768 4.69725,-3.56103 11.3469,-5.77205 18.8091,-5.77205l8.07757 0c7.46221,0 14.1106,2.21103 18.8091,5.77205 3.75945,2.84882 6.09331,6.50434 6.09331,10.2768l0 38.563 0 0.207874 23.3339 0z"/>
  <path class="fil24" d="M1233.12 966.497l0 -0.0637796 -23.3339 0 0 0.0637796 -57.8835 0 0 -0.0637796 -23.3339 0 0 0.0637796 -21.2421 0c-6.44292,0 -11.6669,5.22402 -11.6669,11.6669l0 82.8485c0,6.44292 5.22402,11.6669 11.6669,11.6669l147.036 0c6.44292,0 11.6669,-5.22402 11.6669,-11.6669l0 -82.8485c0,-6.44292 -5.22402,-11.6669 -11.6669,-11.6669l-21.2421 0z"/>
 </g>
</svg>
